<svg xmlns="http://www.w3.org/2000/svg" width="1280" height="800" viewBox="0 0 1280 800" role="img" aria-labelledby="title desc">
  <title id="title">Gold-lit digital exhibit hall</title>
  <desc id="desc">A stylized museum hall with metallic gold accent lighting on deep black.</desc>
  <defs>
    <linearGradient id="bg" x1="0%" y1="0%" x2="100%" y2="100%">
      <stop offset="0%" stop-color="#0A0A0A"/>
      <stop offset="100%" stop-color="#1A1A1A"/>
    </linearGradient>
    <linearGradient id="floor" x1="0%" y1="0%" x2="0%" y2="100%">
      <stop offset="0%" stop-color="#1A1A1A"/>
      <stop offset="100%" stop-color="#0A0A0A"/>
    </linearGradient>
  </defs>

  <rect width="1280" height="800" fill="url(#bg)"/>
  <polygon points="0,540 1280,540 1280,800 0,800" fill="url(#floor)"/>

  <rect x="120" y="140" width="320" height="260" rx="12" fill="#1A1A1A" stroke="#D4AF37" stroke-opacity="0.35"/>
  <rect x="480" y="110" width="320" height="300" rx="12" fill="#1A1A1A" stroke="#D4AF37" stroke-opacity="0.35"/>
  <rect x="840" y="150" width="320" height="240" rx="12" fill="#1A1A1A" stroke="#D4AF37" stroke-opacity="0.35"/>

  <rect x="145" y="170" width="270" height="18" fill="#FFD86B"/>
  <rect x="505" y="145" width="270" height="18" fill="#FFD86B"/>
  <rect x="865" y="180" width="270" height="18" fill="#FFD86B"/>

  <circle cx="280" cy="285" r="56" fill="#FFFFFF" fill-opacity="0.92"/>
  <rect x="570" y="210" width="140" height="110" rx="10" fill="#EDEDED" fill-opacity="0.9"/>
  <path d="M930 320 L1010 220 L1090 320 Z" fill="#FFF3B0" fill-opacity="0.85"/>

  <path d="M0 540 L320 380 L640 540 L960 360 L1280 540" fill="none" stroke="#D4AF37" stroke-width="4" stroke-opacity="0.65"/>
</svg>
